<mxfile host="app.diagrams.net" modified="2023-02-06T16:59:21.894Z" agent="5.0 (Macintosh; Intel Mac OS X 10_15_7) AppleWebKit/605.1.15 (KHTML, like Gecko) Version/16.2 Safari/605.1.15" etag="uM6jIPXSJEonYP0P47K0" version="20.8.16" type="github">
  <diagram name="Página-1" id="TtYhuVncpTzSuPGZwa5x">
    <mxGraphModel dx="954" dy="647" grid="1" gridSize="10" guides="1" tooltips="1" connect="1" arrows="1" fold="1" page="1" pageScale="1" pageWidth="827" pageHeight="1169" math="0" shadow="0">
      <root>
        <mxCell id="0" />
        <mxCell id="1" parent="0" />
        <mxCell id="WSdBHz8p2vQ-d6QfU6cu-1" value="&lt;font style=&quot;font-size: 12px;&quot; face=&quot;Verdana&quot;&gt;SERVIÇOS CONECTADOS&lt;/font&gt;" style="rounded=1;whiteSpace=wrap;html=1;" parent="1" vertex="1">
          <mxGeometry x="50" y="90" width="120" height="60" as="geometry" />
        </mxCell>
      </root>
    </mxGraphModel>
  </diagram>
</mxfile>
